<mxfile host="app.diagrams.net" modified="2024-05-17T14:29:19.418Z" agent="Mozilla/5.0 (Windows NT 10.0; Win64; x64) AppleWebKit/537.36 (KHTML, like Gecko) Chrome/122.0.0.0 Safari/537.36 Edg/122.0.0.0" version="24.4.0" etag="t46bFSiR19zPXNZvYRLX" type="github">
  <diagram name="第 1 页" id="HmkFeuMEC-_uCdjzgTmQ">
    <mxGraphModel>
      <root>
        <mxCell id="0" />
        <mxCell id="1" parent="0" />
      </root>
    </mxGraphModel>
  </diagram>
</mxfile>
